<svg width="77" height="79" viewBox="0 0 77 79" fill="none" xmlns="http://www.w3.org/2000/svg">
<g filter="url(#filter0_d_207_55)">
<path d="M42.3177 18.4509L26.2319 22.7222C20.3972 24.2715 17.9154 28.5591 19.484 34.3602L24.7965 54.008C26.3908 59.9042 30.6828 62.3116 36.5175 60.7623L52.6033 56.491C58.5321 54.9167 60.9385 50.7306 59.3442 44.8344L54.0317 25.1867C52.4632 19.3856 48.2465 16.8766 42.3177 18.4509Z" fill="url(#paint0_linear_207_55)"/>
<g filter="url(#filter1_f_207_55)">
<rect width="25.4455" height="21.7173" rx="10.8586" transform="matrix(-0.261015 -0.965335 0.966507 -0.256639 31.3102 53.9081)" fill="#8237FF" fill-opacity="0.5"/>
</g>
<g filter="url(#filter2_b_207_55)">
<path d="M57.4444 28.618H40.7911C34.7506 28.618 31.2335 32.123 31.2335 38.1287V58.4696C31.2335 64.5738 34.7506 68 40.7911 68H57.4444C63.5823 68 67 64.5738 67 58.4696V38.1287C67 32.123 63.5823 28.618 57.4444 28.618Z" fill="#BA90FF" fill-opacity="0.35"/>
<path d="M57.4444 28.118H40.7911C37.6749 28.118 35.1453 29.0238 33.3944 30.7669C31.6431 32.5102 30.7335 35.0286 30.7335 38.1287V58.4696C30.7335 61.6169 31.6421 64.1417 33.3952 65.879C35.1475 67.6156 37.6779 68.5 40.7911 68.5H57.4444C60.6044 68.5 63.1361 67.6166 64.8772 65.8776C66.6184 64.1386 67.5 61.6131 67.5 58.4696V38.1287C67.5 35.0325 66.6174 32.5133 64.878 30.7682C63.1383 29.0228 60.6074 28.118 57.4444 28.118Z" stroke="url(#paint1_linear_207_55)" stroke-linecap="round" stroke-linejoin="round"/>
</g>
<g filter="url(#filter3_bd_207_55)">
<mask id="path-5-inside-1_207_55" fill="white">
<path fill-rule="evenodd" clip-rule="evenodd" d="M41.3274 37.7751V37.7948C40.471 37.7948 39.7776 38.484 39.7776 39.3307C39.7776 40.1774 40.471 40.8666 41.3274 40.8666H47.2667C48.1231 40.8666 48.8185 40.1774 48.8185 39.309C48.8185 38.4643 48.1231 37.7751 47.2667 37.7751H41.3274ZM56.9057 49.7673H41.3274C40.471 49.7673 39.7776 49.0781 39.7776 48.2314C39.7776 47.3846 40.471 46.6935 41.3274 46.6935H56.9057C57.7601 46.6935 58.4556 47.3846 58.4556 48.2314C58.4556 49.0781 57.7601 49.7673 56.9057 49.7673ZM56.9059 58.7659H41.3276C40.7315 58.8447 40.1552 58.5493 39.8373 58.057C39.5194 57.5451 39.5194 56.8953 39.8373 56.403C40.1552 55.891 40.7315 55.6153 41.3276 55.6744H56.9059C57.6987 55.7532 58.2968 56.4227 58.2968 57.23C58.2968 58.0157 57.6987 58.6871 56.9059 58.7659Z"/>
</mask>
<path fill-rule="evenodd" clip-rule="evenodd" d="M41.3274 37.7751V37.7948C40.471 37.7948 39.7776 38.484 39.7776 39.3307C39.7776 40.1774 40.471 40.8666 41.3274 40.8666H47.2667C48.1231 40.8666 48.8185 40.1774 48.8185 39.309C48.8185 38.4643 48.1231 37.7751 47.2667 37.7751H41.3274ZM56.9057 49.7673H41.3274C40.471 49.7673 39.7776 49.0781 39.7776 48.2314C39.7776 47.3846 40.471 46.6935 41.3274 46.6935H56.9057C57.7601 46.6935 58.4556 47.3846 58.4556 48.2314C58.4556 49.0781 57.7601 49.7673 56.9057 49.7673ZM56.9059 58.7659H41.3276C40.7315 58.8447 40.1552 58.5493 39.8373 58.057C39.5194 57.5451 39.5194 56.8953 39.8373 56.403C40.1552 55.891 40.7315 55.6153 41.3276 55.6744H56.9059C57.6987 55.7532 58.2968 56.4227 58.2968 57.23C58.2968 58.0157 57.6987 58.6871 56.9059 58.7659Z" fill="url(#paint2_linear_207_55)"/>
<path d="M41.3274 37.7948V38.1948H41.7274V37.7948H41.3274ZM41.3274 37.7751V37.3751H40.9274V37.7751H41.3274ZM41.3276 58.7659V58.3659H41.3013L41.2752 58.3694L41.3276 58.7659ZM56.9059 58.7659V59.1659H56.9257L56.9454 59.1639L56.9059 58.7659ZM39.8373 58.057L39.4975 58.2681L39.5013 58.274L39.8373 58.057ZM39.8373 56.403L40.1734 56.62L40.1771 56.614L39.8373 56.403ZM41.3276 55.6744L41.2881 56.0725L41.3078 56.0744H41.3276V55.6744ZM56.9059 55.6744L56.9454 55.2764L56.9257 55.2744H56.9059V55.6744ZM41.7274 37.7948V37.7751H40.9274V37.7948H41.7274ZM40.1776 39.3307C40.1776 38.708 40.6889 38.1948 41.3274 38.1948V37.3948C40.2532 37.3948 39.3776 38.26 39.3776 39.3307H40.1776ZM41.3274 40.4666C40.6889 40.4666 40.1776 39.9534 40.1776 39.3307H39.3776C39.3776 40.4014 40.2532 41.2666 41.3274 41.2666V40.4666ZM47.2667 40.4666H41.3274V41.2666H47.2667V40.4666ZM48.4185 39.309C48.4185 39.9564 47.9022 40.4666 47.2667 40.4666V41.2666C48.3439 41.2666 49.2185 40.3984 49.2185 39.309H48.4185ZM47.2667 38.1751C47.9062 38.1751 48.4185 38.6893 48.4185 39.309H49.2185C49.2185 38.2393 48.3399 37.3751 47.2667 37.3751V38.1751ZM41.3274 38.1751H47.2667V37.3751H41.3274V38.1751ZM41.3274 50.1673H56.9057V49.3673H41.3274V50.1673ZM39.3776 48.2314C39.3776 49.3021 40.2532 50.1673 41.3274 50.1673V49.3673C40.6889 49.3673 40.1776 48.8541 40.1776 48.2314H39.3776ZM41.3274 46.2935C40.2525 46.2935 39.3776 47.1613 39.3776 48.2314H40.1776C40.1776 47.608 40.6895 47.0935 41.3274 47.0935V46.2935ZM56.9057 46.2935H41.3274V47.0935H56.9057V46.2935ZM58.8556 48.2314C58.8556 47.161 57.9783 46.2935 56.9057 46.2935V47.0935C57.542 47.0935 58.0556 47.6083 58.0556 48.2314H58.8556ZM56.9057 50.1673C57.9776 50.1673 58.8556 49.3024 58.8556 48.2314H58.0556C58.0556 48.8538 57.5426 49.3673 56.9057 49.3673V50.1673ZM41.3276 59.1659H56.9059V58.3659H41.3276V59.1659ZM39.5013 58.274C39.8964 58.8858 40.6187 59.2631 41.38 59.1625L41.2752 58.3694C40.8443 58.4263 40.4141 58.2128 40.1733 57.84L39.5013 58.274ZM39.5013 56.186C39.0964 56.8129 39.101 57.6295 39.4975 58.268L40.1771 57.846C39.9378 57.4607 39.9423 56.9777 40.1733 56.62L39.5013 56.186ZM41.367 55.2764C40.6228 55.2026 39.8978 55.5474 39.4975 56.192L40.1771 56.614C40.4127 56.2347 40.8401 56.0281 41.2881 56.0725L41.367 55.2764ZM56.9059 55.2744H41.3276V56.0744H56.9059V55.2744ZM58.6968 57.23C58.6968 56.2217 57.9474 55.3759 56.9454 55.2764L56.8663 56.0725C57.45 56.1304 57.8968 56.6236 57.8968 57.23H58.6968ZM56.9454 59.1639C57.9446 59.0647 58.6968 58.2195 58.6968 57.23H57.8968C57.8968 57.8119 57.4528 58.3096 56.8663 58.3679L56.9454 59.1639Z" fill="url(#paint3_linear_207_55)" mask="url(#path-5-inside-1_207_55)"/>
</g>
</g>
<defs>
<filter id="filter0_d_207_55" x="13" y="16" width="59" height="61" filterUnits="userSpaceOnUse" color-interpolation-filters="sRGB">
<feFlood flood-opacity="0" result="BackgroundImageFix"/>
<feColorMatrix in="SourceAlpha" type="matrix" values="0 0 0 0 0 0 0 0 0 0 0 0 0 0 0 0 0 0 127 0" result="hardAlpha"/>
<feOffset dy="4"/>
<feGaussianBlur stdDeviation="2"/>
<feComposite in2="hardAlpha" operator="out"/>
<feColorMatrix type="matrix" values="0 0 0 0 0 0 0 0 0 0 0 0 0 0 0 0 0 0 0.25 0"/>
<feBlend mode="normal" in2="BackgroundImageFix" result="effect1_dropShadow_207_55"/>
<feBlend mode="normal" in="SourceGraphic" in2="effect1_dropShadow_207_55" result="shape"/>
</filter>
<filter id="filter1_f_207_55" x="0.124146" y="-0.808838" width="76.7203" height="79.297" filterUnits="userSpaceOnUse" color-interpolation-filters="sRGB">
<feFlood flood-opacity="0" result="BackgroundImageFix"/>
<feBlend mode="normal" in="SourceGraphic" in2="BackgroundImageFix" result="shape"/>
<feGaussianBlur stdDeviation="13.5" result="effect1_foregroundBlur_207_55"/>
</filter>
<filter id="filter2_b_207_55" x="6.23352" y="3.61798" width="85.7665" height="89.382" filterUnits="userSpaceOnUse" color-interpolation-filters="sRGB">
<feFlood flood-opacity="0" result="BackgroundImageFix"/>
<feGaussianBlur in="BackgroundImageFix" stdDeviation="12"/>
<feComposite in2="SourceAlpha" operator="in" result="effect1_backgroundBlur_207_55"/>
<feBlend mode="normal" in="SourceGraphic" in2="effect1_backgroundBlur_207_55" result="shape"/>
</filter>
<filter id="filter3_bd_207_55" x="24.5989" y="22.7751" width="48.8567" height="51.0035" filterUnits="userSpaceOnUse" color-interpolation-filters="sRGB">
<feFlood flood-opacity="0" result="BackgroundImageFix"/>
<feGaussianBlur in="BackgroundImageFix" stdDeviation="7.5"/>
<feComposite in2="SourceAlpha" operator="in" result="effect1_backgroundBlur_207_55"/>
<feColorMatrix in="SourceAlpha" type="matrix" values="0 0 0 0 0 0 0 0 0 0 0 0 0 0 0 0 0 0 127 0" result="hardAlpha"/>
<feOffset dx="5" dy="5"/>
<feGaussianBlur stdDeviation="5"/>
<feColorMatrix type="matrix" values="0 0 0 0 0.577356 0 0 0 0 0.359375 0 0 0 0 0.9375 0 0 0 0.5 0"/>
<feBlend mode="normal" in2="effect1_backgroundBlur_207_55" result="effect2_dropShadow_207_55"/>
<feBlend mode="normal" in="SourceGraphic" in2="effect2_dropShadow_207_55" result="shape"/>
</filter>
<linearGradient id="paint0_linear_207_55" x1="34.2739" y1="20.5868" x2="44.3869" y2="58.6727" gradientUnits="userSpaceOnUse">
<stop stop-color="#BC94FF"/>
<stop offset="1" stop-color="#9F66FF"/>
</linearGradient>
<linearGradient id="paint1_linear_207_55" x1="36.927" y1="33.206" x2="62.4488" y2="61.9134" gradientUnits="userSpaceOnUse">
<stop stop-color="white" stop-opacity="0.25"/>
<stop offset="1" stop-color="white" stop-opacity="0"/>
</linearGradient>
<linearGradient id="paint2_linear_207_55" x1="57.1187" y1="41.5679" x2="36.1097" y2="42.1829" gradientUnits="userSpaceOnUse">
<stop stop-color="white"/>
<stop offset="1" stop-color="white" stop-opacity="0.2"/>
</linearGradient>
<linearGradient id="paint3_linear_207_55" x1="42.6006" y1="40.222" x2="56.2295" y2="55.3765" gradientUnits="userSpaceOnUse">
<stop stop-color="white" stop-opacity="0.25"/>
<stop offset="1" stop-color="white" stop-opacity="0"/>
</linearGradient>
</defs>
</svg>
